<?xml version="1.0" standalone="no"?>
<!DOCTYPE svg PUBLIC "-//W3C//DTD SVG 20010904//EN"
 "http://www.w3.org/TR/2001/REC-SVG-20010904/DTD/svg10.dtd">
<svg version="1.0" xmlns="http://www.w3.org/2000/svg"
 width="280.000000pt" height="280.000000pt" viewBox="0 0 280.000000 280.000000"
 preserveAspectRatio="xMidYMid meet">
<metadata>
Created by potrace 1.11, written by Peter Selinger 2001-2013
</metadata>
<g transform="translate(0.000000,280.000000) scale(0.100000,-0.100000)"
fill="#000000" stroke="none">
<path d="M17 2611 c-9 -11 -9 -15 1 -18 6 -3 9 -10 5 -16 -4 -6 -7 -463 -8
-1014 l0 -1003 35 0 c57 -1 644 -1 657 -1 10 1 12 223 10 1034 l-2 1032 -343
1 c-290 0 -345 -2 -355 -15z"/>
<path d="M788 2238 c-2 -7 -4 -472 -4 -1033 l1 -1020 347 0 c229 0 349 3 351
10 2 5 3 469 2 1030 l0 1020 -346 3 c-272 2 -348 0 -351 -10z"/>
<path d="M1550 1217 l0 -1033 358 1 c350 1 358 1 432 25 205 67 341 201 411
405 31 92 33 259 5 350 -68 215 -243 384 -439 425 -35 7 -60 18 -65 28 -4 9
-7 200 -7 425 l1 407 -348 0 -348 0 0 -1033z m666 -190 c48 -7 123 -55 155
-100 38 -52 52 -109 46 -179 -8 -89 -57 -158 -144 -203 -66 -33 -171 -30 -236
8 -167 98 -169 345 -3 442 41 24 118 45 141 39 6 -2 24 -5 41 -7z"/>
</g>
</svg>
